<svg xmlns="http://www.w3.org/2000/svg" xmlns:xlink="http://www.w3.org/1999/xlink" width="215" height="302" viewBox="850 400 215 302" version="1.1">
<g id="surface1">
<path style=" stroke:none;fill-rule:nonzero;fill:rgb(82.35321%,85.098267%,87.451172%);fill-opacity:1;" d="M 960 424.460938 C 939.375 424.460938 918.75 425.3125 903.015625 427.023438 C 871.539062 430.445312 871.539062 435.988281 903.015625 439.410156 C 934.488281 442.832031 985.511719 442.832031 1016.984375 439.410156 C 1048.460938 435.988281 1048.460938 430.445312 1016.984375 427.023438 C 1001.246094 425.3125 980.625 424.460938 960 424.460938 Z M 879.410156 437.1875 L 879.410156 491.742188 C 879.410156 496.570312 915.492188 500.976562 960 500.976562 C 1004.507812 500.976562 1040.589844 496.570312 1040.589844 491.742188 L 1040.589844 437.1875 C 1029.128906 440.832031 997.367188 443.4375 960 443.4375 C 922.632812 443.4375 890.871094 440.832031 879.410156 437.1875 Z M 879.410156 437.1875 "/>
<path style=" stroke:none;fill-rule:nonzero;fill:rgb(54.510498%,60.784912%,65.490723%);fill-opacity:1;" d="M 960 501.742188 C 939.375 501.742188 918.75 502.59375 903.015625 504.304688 C 871.539062 507.726562 871.539062 513.269531 903.015625 516.691406 C 934.488281 520.113281 985.511719 520.113281 1016.984375 516.691406 C 1048.460938 513.269531 1048.460938 507.726562 1016.984375 504.304688 C 1001.246094 502.59375 980.625 501.742188 960 501.742188 Z M 879.410156 514.46875 L 879.410156 569.023438 C 879.410156 573.851562 915.492188 578.257812 960 578.257812 C 1004.507812 578.257812 1040.589844 573.851562 1040.589844 569.023438 L 1040.589844 514.46875 C 1029.128906 518.113281 997.367188 520.71875 960 520.71875 C 922.632812 520.71875 890.871094 518.113281 879.410156 514.46875 Z M 879.410156 514.46875 "/>
<path style=" stroke:none;fill-rule:nonzero;fill:rgb(33.724976%,41.175842%,47.058105%);fill-opacity:1;" d="M 960 579.023438 C 939.375 579.023438 918.75 579.875 903.015625 581.585938 C 871.539062 585.007812 871.539062 590.550781 903.015625 593.972656 C 934.488281 597.394531 985.511719 597.394531 1016.984375 593.972656 C 1048.460938 590.550781 1048.460938 585.007812 1016.984375 581.585938 C 1001.246094 579.875 980.625 579.023438 960 579.023438 Z M 879.410156 591.75 L 879.410156 646.304688 C 879.410156 651.132812 915.492188 655.539062 960 655.539062 C 1004.507812 655.539062 1040.589844 651.132812 1040.589844 646.304688 L 1040.589844 591.75 C 1029.128906 595.394531 997.367188 598 960 598 C 922.632812 598 890.871094 595.394531 879.410156 591.75 Z M 879.410156 591.75 "/>
</g>
</svg>