<svg xmlns="http://www.w3.org/2000/svg" xmlns:xlink="http://www.w3.org/1999/xlink" width="360" height="380" viewBox="0 0 360 350" version="1.1">
<defs>
<clipPath id="clip1">
  <path d="M 74 79 L 134 79 L 134 147 L 74 147 Z M 74 79 "/>
</clipPath>
<clipPath id="clip2">
  <path d="M 88.84375 79.730469 L 133.203125 134.15625 L 118.476562 146.160156 L 74.117188 91.734375 Z M 88.84375 79.730469 "/>
</clipPath>
<clipPath id="clip3">
  <path d="M 111 124 L 129 124 L 129 142 L 111 142 Z M 111 124 "/>
</clipPath>
<clipPath id="clip4">
  <path d="M 88.84375 79.730469 L 133.203125 134.15625 L 118.476562 146.160156 L 74.117188 91.734375 Z M 88.84375 79.730469 "/>
</clipPath>
<clipPath id="clip5">
  <path d="M 78 84 L 96 84 L 96 102 L 78 102 Z M 78 84 "/>
</clipPath>
<clipPath id="clip6">
  <path d="M 88.84375 79.730469 L 133.203125 134.15625 L 118.476562 146.160156 L 74.117188 91.734375 Z M 88.84375 79.730469 "/>
</clipPath>
<clipPath id="clip7">
  <path d="M 109 194 L 156 194 L 156 274 L 109 274 Z M 109 194 "/>
</clipPath>
<clipPath id="clip8">
  <path d="M 109.746094 266.894531 L 138.089844 194.980469 L 155.765625 201.945312 L 127.425781 273.859375 Z M 109.746094 266.894531 "/>
</clipPath>
<clipPath id="clip9">
  <path d="M 134 198 L 152 198 L 152 216 L 134 216 Z M 134 198 "/>
</clipPath>
<clipPath id="clip10">
  <path d="M 109.746094 266.894531 L 138.089844 194.980469 L 155.765625 201.945312 L 127.425781 273.859375 Z M 109.746094 266.894531 "/>
</clipPath>
<clipPath id="clip11">
  <path d="M 113 253 L 131 253 L 131 271 L 113 271 Z M 113 253 "/>
</clipPath>
<clipPath id="clip12">
  <path d="M 109.746094 266.894531 L 138.089844 194.980469 L 155.765625 201.945312 L 127.425781 273.859375 Z M 109.746094 266.894531 "/>
</clipPath>
<clipPath id="clip13">
  <path d="M 186 185 L 255 185 L 255 242 L 186 242 Z M 186 185 "/>
</clipPath>
<clipPath id="clip14">
  <path d="M 243.058594 241.679688 L 186.351562 201.203125 L 197.390625 185.738281 L 254.097656 226.214844 Z M 243.058594 241.679688 "/>
</clipPath>
<clipPath id="clip15">
  <path d="M 191 190 L 209 190 L 209 208 L 191 208 Z M 191 190 "/>
</clipPath>
<clipPath id="clip16">
  <path d="M 243.058594 241.679688 L 186.351562 201.203125 L 197.390625 185.738281 L 254.097656 226.214844 Z M 243.058594 241.679688 "/>
</clipPath>
<clipPath id="clip17">
  <path d="M 232 219 L 250 219 L 250 237 L 232 237 Z M 232 219 "/>
</clipPath>
<clipPath id="clip18">
  <path d="M 243.058594 241.679688 L 186.351562 201.203125 L 197.390625 185.738281 L 254.097656 226.214844 Z M 243.058594 241.679688 "/>
</clipPath>
<clipPath id="clip19">
  <path d="M 158 101 L 225 101 L 225 168 L 158 168 Z M 158 101 "/>
</clipPath>
<clipPath id="clip20">
  <path d="M 158.421875 154.179688 L 211.101562 101.5 L 224.535156 114.933594 L 171.855469 167.613281 Z M 158.421875 154.179688 "/>
</clipPath>
<clipPath id="clip21">
  <path d="M 202 106 L 220 106 L 220 124 L 202 124 Z M 202 106 "/>
</clipPath>
<clipPath id="clip22">
  <path d="M 158.421875 154.179688 L 211.101562 101.5 L 224.535156 114.933594 L 171.855469 167.613281 Z M 158.421875 154.179688 "/>
</clipPath>
<clipPath id="clip23">
  <path d="M 163 145 L 181 145 L 181 163 L 163 163 Z M 163 145 "/>
</clipPath>
<clipPath id="clip24">
  <path d="M 158.421875 154.179688 L 211.101562 101.5 L 224.535156 114.933594 L 171.855469 167.613281 Z M 158.421875 154.179688 "/>
</clipPath>
</defs>
<g id="surface1">

<path style=" stroke:none;fill-rule:nonzero;fill:rgb(54.510498%,60.784912%,65.490723%);fill-opacity:1;" d="M 285.285156 224.109375 C 298.429688 237.9375 298.429688 260.359375 285.285156 274.1875 C 272.136719 288.015625 250.824219 288.015625 237.675781 274.1875 C 224.527344 260.359375 224.527344 237.9375 237.675781 224.109375 C 250.824219 210.28125 272.136719 210.28125 285.285156 224.109375 Z M 285.285156 224.109375 "/>
<path style=" stroke:none;fill-rule:nonzero;fill:rgb(54.510498%,60.784912%,65.490723%);fill-opacity:1;" d="M 93.648438 36.433594 C 108.816406 52.390625 108.816406 78.261719 93.648438 94.21875 C 78.476562 110.179688 53.882812 110.179688 38.710938 94.21875 C 23.539062 78.261719 23.539062 52.390625 38.710938 36.433594 C 53.882812 20.472656 78.476562 20.472656 93.648438 36.433594 Z M 93.648438 36.433594 "/>
<g clip-path="url(#clip1)" clip-rule="nonzero">
<g clip-path="url(#clip2)" clip-rule="nonzero">
<path style="fill:none;stroke-width:5;stroke-linecap:butt;stroke-linejoin:miter;stroke:rgb(28.234863%,35.68573%,41.567993%);stroke-opacity:1;stroke-miterlimit:4;" d="M 14.500926 -0.00129938 L 16.999803 -0.000493342 L 51.216694 0.000138633 L 53.715571 0.000944674 " transform="matrix(0.631784,0.775145,-0.775145,0.631784,82.11098,86.5066)"/>
</g>
</g>
<g clip-path="url(#clip3)" clip-rule="nonzero">
<g clip-path="url(#clip4)" clip-rule="nonzero">
<path style=" stroke:none;fill-rule:nonzero;fill:rgb(28.234863%,35.68573%,41.567993%);fill-opacity:1;" d="M 126.425781 127.425781 C 129.390625 131.0625 128.847656 136.417969 125.207031 139.382812 C 121.570312 142.347656 116.214844 141.804688 113.25 138.164062 C 110.28125 134.527344 110.828125 129.171875 114.46875 126.207031 C 118.105469 123.238281 123.460938 123.785156 126.425781 127.425781 Z M 126.425781 127.425781 "/>
</g>
</g>
<g clip-path="url(#clip5)" clip-rule="nonzero">
<g clip-path="url(#clip6)" clip-rule="nonzero">
<path style=" stroke:none;fill-rule:nonzero;fill:rgb(28.234863%,35.68573%,41.567993%);fill-opacity:1;" d="M 80.890625 98.464844 C 77.925781 94.828125 78.472656 89.472656 82.109375 86.507812 C 85.75 83.539062 91.105469 84.085938 94.070312 87.726562 C 97.035156 91.363281 96.488281 96.71875 92.851562 99.683594 C 89.210938 102.648438 83.859375 102.105469 80.890625 98.464844 Z M 80.890625 98.464844 "/>
</g>
</g>
<path style=" stroke:none;fill-rule:nonzero;fill:rgb(82.35321%,85.098267%,87.451172%);fill-opacity:1;" d="M 189.890625 135.894531 C 209.417969 155.421875 209.417969 187.078125 189.890625 206.605469 C 170.367188 226.132812 138.707031 226.132812 119.183594 206.605469 C 99.65625 187.078125 99.65625 155.421875 119.183594 135.894531 C 138.707031 116.367188 170.367188 116.367188 189.890625 135.894531 Z M 189.890625 135.894531 "/>
<g clip-path="url(#clip7)" clip-rule="nonzero">
<g clip-path="url(#clip8)" clip-rule="nonzero">
<path style="fill:none;stroke-width:5;stroke-linecap:butt;stroke-linejoin:miter;stroke:rgb(28.234863%,35.68573%,41.567993%);stroke-opacity:1;stroke-miterlimit:4;" d="M 14.500338 0.000180111 L 16.999269 0.00200598 L 58.296716 0.000184273 L 60.799281 0.000577857 " transform="matrix(0.366665,-0.930353,0.930353,0.366665,118.9526,269.4474)"/>
</g>
</g>
<g clip-path="url(#clip9)" clip-rule="nonzero">
<g clip-path="url(#clip10)" clip-rule="nonzero">
<path style=" stroke:none;fill-rule:nonzero;fill:rgb(28.234863%,35.68573%,41.567993%);fill-opacity:1;" d="M 135.539062 204.183594 C 137.257812 199.816406 142.195312 197.671875 146.5625 199.394531 C 150.929688 201.113281 153.074219 206.050781 151.351562 210.417969 C 149.632812 214.785156 144.695312 216.929688 140.328125 215.210938 C 135.960938 213.488281 133.816406 208.550781 135.539062 204.183594 Z M 135.539062 204.183594 "/>
</g>
</g>
<g clip-path="url(#clip11)" clip-rule="nonzero">
<g clip-path="url(#clip12)" clip-rule="nonzero">
<path style=" stroke:none;fill-rule:nonzero;fill:rgb(28.234863%,35.68573%,41.567993%);fill-opacity:1;" d="M 129.976562 264.65625 C 128.257812 269.023438 123.320312 271.167969 118.953125 269.449219 C 114.585938 267.726562 112.441406 262.789062 114.160156 258.421875 C 115.882812 254.054688 120.820312 251.910156 125.1875 253.632812 C 129.554688 255.351562 131.699219 260.289062 129.976562 264.65625 Z M 129.976562 264.65625 "/>
</g>
</g>
<g clip-path="url(#clip13)" clip-rule="nonzero">
<g clip-path="url(#clip14)" clip-rule="nonzero">
<path style="fill:none;stroke-width:5;stroke-linecap:butt;stroke-linejoin:miter;stroke:rgb(28.234863%,35.68573%,41.567993%);stroke-opacity:1;stroke-miterlimit:4;" d="M 14.5015 -0.000773503 L 16.999007 0.00188979 L 50.668596 -0.000769518 L 53.169282 -0.000375612 " transform="matrix(-0.813931,-0.580962,0.580962,-0.813931,247.7646,233.3656)"/>
</g>
</g>
<g clip-path="url(#clip15)" clip-rule="nonzero">
<g clip-path="url(#clip16)" clip-rule="nonzero">
<path style=" stroke:none;fill-rule:nonzero;fill:rgb(28.234863%,35.68573%,41.567993%);fill-opacity:1;" d="M 194.664062 205.90625 C 190.84375 203.179688 189.957031 197.871094 192.683594 194.050781 C 195.414062 190.230469 200.722656 189.34375 204.542969 192.070312 C 208.363281 194.796875 209.25 200.105469 206.523438 203.925781 C 203.792969 207.75 198.488281 208.636719 194.664062 205.90625 Z M 194.664062 205.90625 "/>
</g>
</g>
<g clip-path="url(#clip17)" clip-rule="nonzero">
<g clip-path="url(#clip18)" clip-rule="nonzero">
<path style=" stroke:none;fill-rule:nonzero;fill:rgb(28.234863%,35.68573%,41.567993%);fill-opacity:1;" d="M 245.785156 221.507812 C 249.605469 224.234375 250.492188 229.542969 247.765625 233.367188 C 245.039062 237.1875 239.730469 238.074219 235.90625 235.347656 C 232.085938 232.617188 231.199219 227.308594 233.929688 223.488281 C 236.65625 219.667969 241.964844 218.78125 245.785156 221.507812 Z M 245.785156 221.507812 "/>
</g>
</g>
<g clip-path="url(#clip19)" clip-rule="nonzero">
<g clip-path="url(#clip20)" clip-rule="nonzero">
<path style="fill:none;stroke-width:5;stroke-linecap:butt;stroke-linejoin:miter;stroke:rgb(28.234863%,35.68573%,41.567993%);stroke-opacity:1;stroke-miterlimit:4;" d="M 14.499123 -0.000101647 L 58.002761 -0.000101647 " transform="matrix(0.707107,-0.707107,0.707107,0.707107,165.8453,160.19)"/>
</g>
</g>
<g clip-path="url(#clip21)" clip-rule="nonzero">
<g clip-path="url(#clip22)" clip-rule="nonzero">
<path style=" stroke:none;fill-rule:nonzero;fill:rgb(28.234863%,35.68573%,41.567993%);fill-opacity:1;" d="M 205.089844 108.925781 C 208.410156 105.605469 213.792969 105.605469 217.109375 108.925781 C 220.429688 112.242188 220.429688 117.625 217.109375 120.945312 C 213.792969 124.265625 208.410156 124.265625 205.089844 120.945312 C 201.769531 117.625 201.769531 112.242188 205.089844 108.925781 Z M 205.089844 108.925781 "/>
</g>
</g>
<g clip-path="url(#clip23)" clip-rule="nonzero">
<g clip-path="url(#clip24)" clip-rule="nonzero">
<path style=" stroke:none;fill-rule:nonzero;fill:rgb(28.234863%,35.68573%,41.567993%);fill-opacity:1;" d="M 177.867188 160.191406 C 174.546875 163.507812 169.164062 163.507812 165.84375 160.191406 C 162.527344 156.871094 162.527344 151.488281 165.84375 148.167969 C 169.164062 144.851562 174.546875 144.851562 177.867188 148.167969 C 181.183594 151.488281 181.183594 156.871094 177.867188 160.191406 Z M 177.867188 160.191406 "/>
</g>
</g>
<path style=" stroke:none;fill-rule:nonzero;fill:rgb(33.724976%,41.175842%,47.058105%);fill-opacity:1;" d="M 242.421875 82.414062 C 253.40625 92.953125 253.40625 110.042969 242.421875 120.585938 C 231.441406 131.125 213.632812 131.125 202.652344 120.585938 C 191.667969 110.042969 191.667969 92.953125 202.652344 82.414062 C 213.632812 71.875 231.441406 71.875 242.421875 82.414062 Z M 242.421875 82.414062 "/>
<path style=" stroke:none;fill-rule:nonzero;fill:rgb(33.724976%,41.175842%,47.058105%);fill-opacity:1;" d="M 135.539062 259.640625 C 146.519531 270.183594 146.519531 287.269531 135.539062 297.8125 C 124.554688 308.351562 106.75 308.351562 95.769531 297.8125 C 84.785156 287.269531 84.785156 270.183594 95.769531 259.640625 C 106.75 249.101562 124.554688 249.101562 135.539062 259.640625 Z M 135.539062 259.640625 "/>
</g>
</svg>